<?xml version="1.0" standalone="no"?>
<!DOCTYPE svg PUBLIC "-//W3C//DTD SVG 20010904//EN"
 "http://www.w3.org/TR/2001/REC-SVG-20010904/DTD/svg10.dtd">
<svg version="1.0" xmlns="http://www.w3.org/2000/svg"
 width="1020.000000pt" height="1013.000000pt" viewBox="0 0 1020.000000 1013.000000"
 preserveAspectRatio="xMidYMid meet">

<g transform="translate(0.000000,1013.000000) scale(0.100000,-0.100000)"
fill="#000000" stroke="none">
<path d="M1 7718 c1 -1327 3 -2406 5 -2398 2 8 10 92 18 185 16 184 47 408 70
495 7 30 19 82 26 115 44 210 117 462 191 665 22 58 39 109 39 113 0 7 5 19
75 177 97 221 194 415 229 460 7 8 25 40 41 70 69 131 396 598 455 650 4 3 13
14 21 26 8 12 33 42 56 68 23 26 62 70 85 98 55 65 303 313 399 399 106 95
240 205 339 277 47 35 93 70 104 78 81 68 503 327 607 374 31 14 63 31 71 37
8 7 41 24 74 38 106 47 149 66 176 81 15 8 58 26 95 40 37 13 77 29 88 33 26
12 157 61 265 99 285 102 707 193 1028 221 48 5 -958 9 -2235 10 l-2323 1 1
-2412z m419 2361 c-13 -23 -4 -116 13 -137 21 -26 -4 -24 -27 3 -23 27 -41
105 -24 105 5 0 8 8 8 18 0 22 8 32 27 32 11 0 11 -4 3 -21z"/>
<path d="M5680 10120 c172 -15 466 -70 725 -136 161 -41 556 -171 650 -214 11
-5 63 -27 115 -50 52 -23 109 -50 126 -61 17 -10 36 -19 42 -19 5 0 41 -18 78
-40 38 -22 77 -40 86 -40 10 0 18 -4 18 -10 0 -5 5 -10 10 -10 16 0 282 -158
405 -241 312 -208 559 -411 803 -659 113 -115 315 -346 402 -461 14 -18 30
-37 35 -43 6 -6 27 -36 48 -66 20 -30 61 -89 90 -131 48 -71 121 -183 174
-269 12 -19 38 -66 59 -105 20 -38 41 -75 45 -81 11 -14 159 -312 159 -321 0
-3 9 -24 19 -47 43 -90 71 -159 71 -172 0 -8 4 -14 8 -14 5 0 13 -19 19 -42 6
-24 27 -90 47 -148 75 -222 141 -465 165 -615 6 -33 15 -87 21 -120 23 -126
49 -326 62 -465 32 -357 3 -1024 -57 -1295 -9 -38 -25 -115 -36 -170 -39 -197
-52 -250 -59 -255 -4 -3 -10 -25 -14 -50 -7 -47 -38 -146 -50 -157 -3 -3 -6
-15 -6 -25 0 -17 -37 -120 -125 -343 -15 -38 -36 -88 -46 -110 -10 -22 -32
-71 -48 -110 -40 -91 -101 -211 -187 -363 -38 -67 -75 -134 -82 -147 -7 -14
-17 -25 -23 -25 -5 0 -9 -4 -9 -10 0 -20 -178 -278 -308 -446 -146 -189 -422
-479 -597 -627 -148 -125 -266 -222 -303 -249 -20 -15 -44 -34 -52 -41 -43
-40 -135 -110 -220 -167 -52 -35 -97 -66 -100 -70 -4 -5 -82 -51 -175 -104
-11 -6 -40 -25 -65 -40 -25 -16 -85 -50 -135 -76 -49 -25 -99 -51 -110 -58
-11 -6 -63 -31 -115 -55 -52 -24 -120 -56 -151 -71 -31 -14 -63 -26 -72 -26
-10 0 -17 -4 -17 -8 0 -4 -21 -14 -47 -22 -27 -7 -61 -22 -78 -32 -16 -10 -39
-18 -51 -18 -11 0 -23 -3 -27 -6 -9 -9 -167 -64 -202 -71 -16 -3 -35 -9 -41
-14 -5 -5 -37 -15 -70 -23 -32 -8 -81 -21 -109 -29 -44 -13 -81 -22 -235 -58
-19 -4 -55 -13 -80 -19 -25 -6 -70 -14 -100 -19 -502 -80 -527 -82 -935 -82
-326 0 -417 5 -710 41 -143 17 -496 92 -635 134 -25 8 -85 26 -135 42 -181 55
-407 139 -563 210 -29 13 -55 24 -58 24 -10 0 -246 120 -273 139 -16 12 -31
21 -34 21 -26 0 -447 270 -622 400 -115 85 -176 132 -239 184 -87 72 -424 410
-524 526 -41 47 -84 94 -96 105 -18 18 -134 169 -191 249 -11 16 -34 47 -50
70 -30 41 -60 86 -80 118 -32 53 -82 134 -97 157 -9 14 -31 53 -48 86 -16 33
-42 80 -57 105 -37 64 -157 298 -173 340 -7 19 -22 55 -32 80 -11 25 -23 54
-28 65 -4 11 -15 36 -23 55 -31 71 -138 402 -133 414 2 6 8 1 11 -11 4 -12 16
-25 26 -28 10 -4 19 -13 19 -21 0 -8 5 -14 10 -14 6 0 10 7 10 15 0 8 6 15 14
15 13 0 26 48 26 98 0 31 -78 116 -95 102 -6 -5 -15 -7 -18 -3 -4 3 -7 -8 -7
-27 0 -26 -3 -30 -13 -21 -8 6 -17 7 -21 3 -4 -4 -7 -2 -5 3 1 6 0 17 -3 25
-6 14 -13 43 -37 150 -5 25 -13 56 -16 70 -30 119 -81 440 -95 600 -6 69 -14
163 -19 210 -5 48 -9 -977 -10 -2348 l-1 -2432 3487 2 3488 3 10 22 c13 31 29
29 23 -2 l-5 -25 1598 0 1599 0 0 500 0 500 -563 0 -564 0 -41 30 c-23 17 -42
37 -42 45 0 17 -25 20 -35 5 -3 -5 -13 -10 -21 -10 -8 0 -13 4 -10 8 3 5 -8 6
-25 4 -17 -3 -29 0 -29 7 0 6 4 11 10 11 17 0 89 55 90 68 0 16 28 72 44 87
36 36 67 45 182 55 142 11 313 14 409 7 45 -3 56 -2 30 3 -62 11 -13 11 139
-1 103 -7 141 -7 146 1 4 7 10 11 14 11 3 -1 65 -1 136 -1 l130 0 0 484 0 483
-92 7 c-50 3 -237 6 -416 6 -179 0 -322 3 -318 7 4 4 109 9 234 10 143 2 228
7 232 14 4 6 57 13 118 16 98 5 112 4 118 -11 4 -11 18 -16 45 -16 50 0 51 20
2 21 l-38 2 40 7 40 7 -37 2 c-45 1 -52 25 -12 35 29 8 24 21 -8 21 -12 0 -23
6 -25 13 -4 9 12 12 56 12 l61 0 0 30 c0 23 -4 30 -20 30 -11 0 -20 4 -20 10
0 5 -18 3 -40 -5 -22 -8 -40 -10 -40 -5 0 6 -37 11 -82 12 -46 1 -64 3 -40 5
42 4 42 4 42 44 l0 39 -80 0 -80 0 0 160 c0 153 -1 160 -20 160 -24 0 -24 1
-6 45 20 47 46 47 46 -1 0 -44 21 -42 34 4 5 18 13 32 17 32 5 0 9 18 9 40 0
30 -4 40 -16 40 -8 0 -12 4 -9 10 3 5 1 18 -5 29 -7 13 -7 22 0 26 5 3 10 0
11 -7 0 -7 5 -2 10 11 5 14 6 28 0 35 -5 6 -5 21 0 34 7 19 16 22 59 22 l50 0
0 40 c0 22 -4 40 -10 40 -5 0 -10 5 -10 11 0 6 -6 17 -14 25 -11 11 -16 11
-20 1 -5 -9 -7 -9 -12 1 -3 6 -12 12 -20 12 -22 0 -17 21 7 27 14 4 19 12 16
24 -3 11 0 19 6 19 6 0 7 3 4 6 -3 4 -2 15 3 25 6 11 6 20 1 23 -5 4 -12 0
-15 -6 -3 -7 -5 -4 -3 7 3 26 30 26 39 0 4 -15 6 -12 7 13 1 17 -3 32 -9 32
-5 0 -10 11 -10 25 0 14 5 25 10 25 6 0 10 8 10 19 0 10 7 32 15 47 8 16 15
37 15 47 0 9 5 17 11 17 5 0 7 5 4 10 -9 15 4 50 19 50 7 0 18 17 24 38 7 23
22 44 37 52 29 15 46 77 25 90 -7 4 -13 22 -14 39 0 17 -5 31 -11 31 -5 0 -3
5 7 10 9 6 14 18 11 29 -3 10 1 22 8 26 9 6 11 -3 7 -36 -3 -24 -4 -38 -1 -31
3 6 13 12 24 12 19 0 19 41 19 2400 0 2393 0 2400 -20 2400 -12 0 -20 -7 -20
-16 0 -12 -5 -14 -17 -9 -35 15 -63 17 -63 6 0 -6 -17 -11 -40 -11 -22 0 -40
-4 -40 -10 0 -6 -55 -10 -146 -10 -146 0 -174 6 -174 39 0 8 -71 11 -222 11
-180 1 -227 3 -242 15 -14 11 -47 15 -119 15 -54 0 -106 4 -116 10 -10 5 -37
11 -59 12 -22 2 -38 6 -36 9 2 4 -4 10 -13 13 -10 4 -14 4 -11 0 8 -8 -34 -44
-51 -44 -6 0 -11 -7 -11 -15 0 -8 -5 -15 -11 -15 -6 0 -9 6 -6 13 5 14 -30 47
-50 47 -7 0 -13 6 -13 13 -1 27 -60 77 -102 86 -24 6 -45 10 -48 10 -3 1 -6
18 -8 40 -2 29 -12 48 -41 77 l-37 38 20 38 c12 20 28 39 36 42 8 2 -2 4 -22
5 -27 1 -38 6 -38 16 0 11 11 15 40 15 29 0 40 4 40 15 0 8 -9 15 -20 15 -14
0 -18 5 -13 18 9 24 27 34 33 17 8 -24 56 6 53 33 -2 12 2 22 8 22 6 0 27 17
48 39 l37 38 58 -8 c64 -8 108 4 99 27 -3 8 0 14 6 14 6 0 11 -7 11 -15 0 -11
11 -15 40 -15 33 0 40 3 40 20 0 18 6 19 80 14 47 -3 80 -1 80 4 0 6 17 13 38
16 100 18 114 18 124 5 8 -11 9 -11 5 1 -2 8 -12 16 -23 18 -32 5 -64 25 -64
39 0 7 6 13 14 13 17 0 38 -25 29 -34 -4 -4 5 -2 20 3 16 6 44 11 63 11 19 0
34 5 34 11 0 8 35 10 120 7 94 -3 120 -1 120 9 0 13 28 18 85 15 30 -1 30 -1
5 9 -14 6 -44 9 -67 6 -24 -2 -41 -1 -38 3 3 4 43 11 90 15 47 4 85 11 85 16
0 5 15 10 33 10 23 1 26 3 10 6 -13 2 -23 9 -23 14 0 15 47 10 60 -6 10 -13
25 -14 74 -9 34 4 65 12 69 18 6 8 10 7 14 -1 3 -8 24 -13 54 -13 37 0 49 -4
49 -15 0 -8 9 -15 20 -15 11 0 20 5 20 11 0 16 26 39 44 39 14 0 16 25 16 200
l0 200 -2302 -1 c-1267 -1 -2265 -5 -2218 -9z m4015 -350 c3 -5 1 -10 -4 -10
-6 0 -11 5 -11 10 0 6 2 10 4 10 3 0 8 -4 11 -10z m225 -20 c0 -5 8 -10 17
-10 9 0 14 -3 11 -6 -4 -3 -26 1 -50 10 -43 15 -43 15 -10 16 17 0 32 -4 32
-10z m-197 -28 c-24 -2 -43 -7 -43 -13 0 -5 -17 -9 -38 -9 -21 0 -42 -4 -47
-9 -6 -5 -19 -5 -30 -1 -19 8 -19 9 2 9 12 1 25 6 28 11 3 6 23 10 43 11 20 1
48 4 62 8 14 4 34 5 45 2 13 -4 5 -7 -22 -9z m409 -4 c-9 -9 -15 -9 -24 0 -9
9 -7 12 12 12 19 0 21 -3 12 -12z m-608 -63 c2 -6 -19 -9 -53 -8 -86 2 -88 2
-74 11 18 12 122 9 127 -3z m-884 -215 c0 -5 -7 -10 -15 -10 -8 0 -15 5 -15
10 0 6 7 10 15 10 8 0 15 -4 15 -10z m1517 -5112 c-3 -8 -6 -5 -6 6 -1 11 2
17 5 13 3 -3 4 -12 1 -19z m23 -95 c0 -14 -6 -23 -15 -23 -9 0 -15 -10 -15
-26 0 -14 -4 -23 -10 -19 -5 3 -10 15 -10 26 0 10 5 19 10 19 6 0 10 7 10 16
0 9 -5 12 -12 8 -10 -6 -10 -4 0 7 6 7 12 22 12 33 0 20 0 20 15 0 8 -10 15
-29 15 -41z m-43 -120 c-10 -22 -13 -24 -15 -9 -2 10 2 22 10 27 19 12 19 12
5 -18z m-37 -133 c0 -5 -4 -10 -10 -10 -5 0 -10 5 -10 10 0 6 5 10 10 10 6 0
10 -4 10 -10z m-20 -80 c0 -11 -4 -20 -9 -20 -5 0 -7 9 -4 20 3 11 7 20 9 20
2 0 4 -9 4 -20z m-6 -74 c-6 -16 -24 -23 -24 -8 0 10 22 33 27 28 2 -2 1 -11
-3 -20z m-9830 -92 c3 -8 2 -12 -4 -9 -6 3 -10 10 -10 16 0 14 7 11 14 -7z
m-24 -76 c0 -22 -1 -21 -15 6 -19 36 -19 52 0 32 8 -8 15 -25 15 -38z m9700
-307 c0 -11 -31 -24 -39 -16 -3 3 1 10 9 15 19 12 30 12 30 1z m0 -31 c0 -5
-4 -10 -10 -10 -5 0 -10 5 -10 10 0 6 5 10 10 10 6 0 10 -4 10 -10z m-7 -36
c7 -8 -3 -34 -13 -34 -5 0 -8 9 -7 20 1 20 8 25 20 14z m-76 -136 c-3 -8 -6
-5 -6 6 -1 11 2 17 5 13 3 -3 4 -12 1 -19z m-30 -50 c-3 -8 -6 -5 -6 6 -1 11
2 17 5 13 3 -3 4 -12 1 -19z m30 0 c-3 -8 -6 -5 -6 6 -1 11 2 17 5 13 3 -3 4
-12 1 -19z m-77 -140 c0 -36 -4 -35 -14 5 -4 16 -2 27 4 27 5 0 10 -14 10 -32z
m-20 -43 c0 -25 -16 -24 -18 1 -1 15 2 22 8 19 6 -3 10 -12 10 -20z m-24 -90
c-3 -18 -35 -43 -37 -28 -4 36 -3 59 5 65 13 9 35 -16 32 -37z m44 20 c0 -8
-4 -15 -10 -15 -5 0 -7 7 -4 15 4 8 8 15 10 15 2 0 4 -7 4 -15z m-183 -225
c-6 -22 -13 -37 -15 -35 -7 7 8 75 17 75 5 0 3 -18 -2 -40z m-57 -484 c0 -16
-55 -23 -143 -18 -85 6 -69 19 25 21 45 1 84 4 87 6 10 10 31 4 31 -9z m-1111
-953 c1 -31 -17 -29 -30 4 -7 18 -6 30 1 37 5 5 11 24 11 41 1 24 3 21 10 -15
4 -25 8 -55 8 -67z m-55 4 c15 -24 -3 -35 -20 -13 -8 11 -14 24 -14 29 0 13
22 3 34 -16z m96 -47 c0 -5 -2 -10 -4 -10 -3 0 -8 5 -11 10 -3 6 -1 10 4 10 6
0 11 -4 11 -10z m420 -105 c-7 -8 -18 -15 -24 -15 -6 0 -2 7 8 15 25 19 32 19
16 0z m-8521 -674 c-13 -11 -26 -17 -29 -14 -6 6 30 33 43 33 5 0 -1 -9 -14
-19z m179 -9 c6 -9 12 -25 11 -36 0 -15 -2 -16 -6 -6 -3 8 -17 28 -32 43 -22
24 -23 27 -6 21 11 -4 26 -14 33 -22z m9 -104 c-3 -8 -6 -5 -6 6 -1 11 2 17 5
13 3 -3 4 -12 1 -19z"/>
<path d="M4840 9870 c-10 -7 5 -10 50 -9 45 0 59 3 45 9 -27 12 -77 12 -95 0z"/>
<path d="M5318 9863 c17 -2 47 -2 65 0 17 2 3 4 -33 4 -36 0 -50 -2 -32 -4z"/>
<path d="M4555 9850 c-25 -6 -21 -8 25 -9 30 0 62 4 70 9 18 12 -49 12 -95 0z"/>
<path d="M5576 9852 c-7 -12 110 -21 128 -10 6 4 -2 8 -19 8 -16 0 -46 3 -66
6 -21 4 -39 2 -43 -4z"/>
<path d="M4967 9844 c-1 -1 -72 -8 -157 -14 -85 -6 -166 -13 -180 -15 -129
-17 -277 -37 -330 -46 -36 -5 -82 -13 -102 -16 -21 -3 -35 -9 -32 -14 3 -5 -4
-9 -15 -9 -12 0 -21 5 -21 10 0 18 -17 10 -28 -12 l-11 -23 -2 23 c-1 12 -2
27 -3 33 -1 6 18 13 41 15 22 2 53 8 68 14 14 5 49 10 76 10 27 0 49 4 49 9 0
11 -106 3 -131 -10 -8 -4 -38 -8 -65 -8 -49 1 -74 -4 -189 -35 -78 -21 -116
-37 -110 -46 6 -10 52 -2 92 16 37 17 73 18 73 3 0 -5 4 -8 10 -4 5 3 7 12 3
20 -4 11 -1 13 11 9 11 -4 14 -13 10 -30 -5 -17 -2 -24 9 -24 8 0 18 6 20 13
3 6 6 1 6 -13 0 -14 -3 -31 -8 -39 -7 -11 -10 -9 -15 7 -4 13 -13 19 -22 15
-8 -3 -14 1 -14 11 0 19 -7 20 -40 1 -14 -8 -36 -14 -49 -15 -21 0 -88 -19
-146 -41 -64 -23 -172 -54 -187 -52 -10 2 -18 -1 -18 -5 0 -4 -21 -13 -47 -21
-27 -7 -60 -19 -74 -26 -14 -8 -29 -12 -33 -8 -3 4 -12 -1 -19 -9 -6 -9 -33
-19 -59 -23 -27 -3 -48 -11 -48 -17 0 -6 -3 -9 -6 -5 -4 3 -41 -12 -82 -33
-42 -22 -84 -40 -93 -40 -9 0 -22 -7 -29 -15 -7 -9 -15 -13 -18 -11 -6 6 -64
-24 -74 -39 -4 -5 -10 -6 -14 -3 -3 4 -21 -4 -39 -17 -48 -38 -77 -32 -30 5
21 17 46 30 55 30 10 0 23 7 30 15 10 12 9 15 -5 15 -21 0 -113 -48 -137 -72
-10 -10 -24 -18 -32 -18 -8 0 -18 -5 -22 -11 -4 -8 1 -9 17 -4 20 6 22 5 11
-6 -6 -7 -29 -14 -50 -14 -40 -1 -148 -65 -123 -73 14 -5 81 28 81 40 0 5 7 8
15 8 8 0 15 5 15 10 0 6 7 10 15 10 25 0 17 -17 -15 -30 -16 -7 -30 -16 -30
-21 0 -5 -6 -9 -13 -9 -8 0 -33 -13 -55 -30 -23 -16 -48 -30 -55 -30 -7 0 -18
-5 -25 -12 -9 -9 -12 -9 -12 3 0 8 15 20 33 28 21 9 27 15 17 18 -7 3 -16 1
-18 -5 -2 -7 -8 -12 -13 -12 -14 0 -141 -79 -174 -109 -16 -15 -42 -33 -56
-40 -22 -11 -194 -140 -264 -198 -147 -122 -384 -346 -505 -478 -137 -149
-356 -420 -436 -540 -26 -38 -50 -72 -54 -75 -18 -14 -198 -304 -213 -342 -3
-10 -21 -42 -39 -70 -19 -29 -43 -73 -55 -98 -116 -242 -185 -406 -233 -550
-15 -47 -37 -110 -49 -140 -12 -30 -21 -63 -21 -72 0 -10 -11 -50 -24 -90 -13
-40 -36 -125 -50 -188 -105 -461 -125 -607 -133 -985 -6 -283 1 -418 33 -665
9 -63 20 -149 25 -190 8 -70 43 -241 75 -370 8 -30 21 -86 30 -125 8 -38 26
-104 40 -145 59 -175 88 -258 105 -297 11 -24 19 -46 19 -50 0 -18 75 -188
136 -308 36 -71 81 -160 99 -197 19 -36 59 -110 89 -162 31 -53 56 -100 56
-103 0 -4 24 -38 54 -77 29 -39 65 -90 80 -113 27 -44 134 -180 194 -247 26
-29 36 -35 43 -25 6 11 9 10 14 -3 4 -10 4 -22 0 -27 -10 -17 45 -82 64 -77
17 6 51 -18 67 -47 5 -9 36 -44 68 -77 32 -33 54 -60 49 -60 -12 0 -119 112
-144 150 -9 14 -20 22 -24 18 -8 -8 41 -70 132 -166 42 -44 67 -63 77 -59 11
4 35 -11 70 -46 112 -108 176 -167 182 -167 4 0 26 -20 50 -44 23 -24 76 -69
118 -100 81 -59 109 -82 135 -106 9 -8 34 -27 56 -42 22 -15 72 -50 110 -77
39 -28 95 -64 125 -82 30 -17 57 -35 60 -39 3 -4 20 -15 38 -24 71 -37 155
-96 136 -97 -10 0 -2 -6 19 -12 23 -7 35 -16 30 -21 -5 -5 -1 -7 9 -3 10 4 18
2 18 -3 0 -6 9 -10 20 -10 26 0 71 -21 64 -31 -2 -4 15 -12 38 -17 24 -5 42
-14 40 -20 -1 -7 5 -12 13 -12 26 0 94 -32 92 -43 -1 -6 7 -11 18 -12 51 -4
56 -5 49 -17 -4 -6 -3 -8 4 -4 6 3 32 -2 58 -12 31 -13 43 -21 33 -26 -8 -3
-4 -4 9 -2 14 3 22 -1 22 -11 0 -8 4 -12 9 -9 13 8 42 -4 36 -15 -7 -10 23
-18 85 -21 31 -2 44 -7 42 -16 -2 -9 4 -11 18 -7 11 4 20 2 20 -4 0 -6 12 -11
28 -11 15 0 34 -5 42 -10 12 -8 10 -10 -10 -11 -24 -1 -23 -1 5 -10 17 -5 38
-7 48 -5 10 2 34 0 54 -6 27 -7 33 -12 22 -19 -10 -6 -5 -9 16 -9 23 0 27 3
15 10 -22 15 -7 12 36 -6 22 -9 43 -23 47 -30 5 -9 21 -14 40 -13 18 1 66 -4
107 -11 60 -11 70 -15 50 -21 -20 -6 -16 -7 20 -8 25 -1 52 -5 60 -11 9 -6 17
-5 22 3 6 9 10 9 16 1 7 -11 46 -34 57 -34 3 0 3 4 0 10 -3 5 1 10 9 10 9 0
16 -4 16 -9 0 -5 28 -11 63 -15 167 -15 189 -19 176 -27 -16 -10 60 -14 154
-10 37 2 63 -2 74 -10 25 -21 585 -19 831 3 106 10 198 20 203 24 6 3 57 12
112 19 135 17 259 41 387 75 58 16 134 34 170 42 36 7 67 16 70 20 3 4 30 14
60 22 107 28 165 47 207 67 24 10 49 19 56 19 7 0 17 4 22 9 6 5 35 17 65 26
30 10 88 33 128 52 39 18 75 33 80 33 4 0 61 26 127 59 66 33 127 62 135 66 8
3 31 16 51 28 20 12 67 39 105 61 38 21 93 54 121 72 29 19 55 34 58 34 3 0
27 15 53 33 26 17 55 37 63 42 9 6 35 24 59 40 24 17 50 35 59 40 9 6 23 16
31 22 8 7 74 59 145 115 72 56 132 105 135 108 3 3 46 41 95 84 163 143 387
367 485 486 25 30 55 66 67 80 12 14 33 39 48 55 14 17 36 46 48 65 11 19 27
41 34 48 7 8 34 44 60 80 26 37 50 69 53 72 4 3 17 25 31 50 13 25 29 50 36
55 7 6 37 53 67 105 30 52 59 100 63 106 32 43 233 451 233 473 0 5 4 11 8 13
9 3 52 101 52 117 0 6 11 34 25 63 13 29 37 93 54 141 16 49 32 91 35 94 3 4
6 13 6 21 0 8 6 28 14 45 8 18 20 59 28 92 8 33 29 114 45 180 62 244 85 372
120 660 21 181 24 744 5 915 -35 304 -79 551 -141 790 -23 88 -112 362 -136
415 -27 63 -55 138 -55 148 0 24 -244 513 -286 572 -12 17 -40 62 -62 101 -23
39 -48 76 -56 84 -9 7 -16 19 -16 26 0 8 -3 14 -8 14 -4 0 -12 8 -17 19 -29
53 -216 311 -258 353 -12 13 -38 43 -57 68 -50 63 -126 145 -270 293 -161 166
-168 173 -198 188 -13 8 -54 42 -90 77 -36 35 -82 74 -102 87 -19 12 -41 30
-49 39 -7 9 -18 16 -23 16 -5 0 -21 12 -36 28 -15 15 -62 51 -105 79 -43 29
-84 59 -93 67 -8 8 -23 18 -34 21 -11 3 -20 10 -20 15 0 4 -12 13 -27 20 -47
19 -94 47 -135 81 -22 17 -51 32 -64 32 -13 0 -24 5 -24 13 0 8 -6 11 -17 7
-10 -4 -14 -2 -9 5 3 6 -3 14 -16 18 -13 4 -35 16 -49 26 -15 11 -38 21 -52
21 -16 1 -23 7 -19 16 4 10 -1 12 -16 7 -16 -5 -21 -4 -17 6 6 18 -55 47 -87
41 -16 -3 -49 7 -94 30 -38 19 -85 40 -104 47 -19 7 -54 21 -77 31 -24 11 -47
19 -53 19 -10 0 -20 4 -65 27 -12 6 -35 14 -54 18 -18 4 -44 13 -59 21 -15 8
-35 14 -45 14 -9 0 -25 4 -35 9 -20 10 -80 31 -104 36 -9 2 -26 9 -37 15 -12
6 -47 15 -78 21 -32 6 -62 14 -68 19 -5 4 -37 13 -70 19 -33 7 -69 16 -80 21
-16 8 -196 40 -220 40 -3 0 -5 5 -5 10 0 6 15 10 33 11 l32 0 -35 12 c-31 11
-35 10 -38 -6 -3 -14 -10 -17 -35 -12 -93 16 -357 48 -460 56 -110 9 -524 19
-530 13z m-897 -100 c0 -17 -22 -14 -28 4 -2 7 3 12 12 12 9 0 16 -7 16 -16z
m15 -174 c-8 -58 -15 -124 -15 -147 0 -23 -5 -45 -12 -49 -8 -5 -9 2 -5 23 3
16 9 66 12 109 6 77 24 178 30 172 2 -2 -3 -51 -10 -108z m-85 73 c0 -5 -5
-15 -10 -23 -8 -12 -10 -11 -10 8 0 12 5 22 10 22 6 0 10 -3 10 -7z m17 -90
c-3 -10 -5 -2 -5 17 0 19 2 27 5 18 2 -10 2 -26 0 -35z m-33 12 c-4 -8 -8 -15
-10 -15 -2 0 -4 7 -4 15 0 8 4 15 10 15 5 0 7 -7 4 -15z m2843 -61 c-3 -3 -12
-4 -19 -1 -8 3 -5 6 6 6 11 1 17 -2 13 -5z m-2820 -36 c-3 -7 -5 -2 -5 12 0
14 2 19 5 13 2 -7 2 -19 0 -25z m-6 -106 c1 -34 -1 -65 -4 -69 -4 -3 -7 27 -7
67 0 88 9 90 11 2z m3294 -12 c3 -5 -3 -10 -15 -10 -12 0 -18 5 -15 10 3 6 10
10 15 10 5 0 12 -4 15 -10z m-3336 -97 c-1 -43 -4 -91 -8 -108 -4 -16 -7 18
-6 77 0 60 3 108 8 108 4 0 6 -35 6 -77z m2681 37 l0 -40 55 0 55 0 0 -39 c0
-22 7 -46 15 -55 8 -8 15 -20 15 -26 0 -6 11 -22 25 -36 14 -14 25 -35 25 -46
0 -12 5 -36 12 -54 10 -27 9 -35 -6 -49 -9 -10 -15 -23 -12 -30 3 -8 -2 -16
-10 -19 -8 -3 -14 -15 -14 -26 0 -11 -6 -20 -12 -20 -10 0 -14 -41 -17 -160
-3 -142 -1 -160 13 -160 12 0 16 -10 16 -40 0 -29 -4 -40 -15 -40 -13 0 -15
-24 -15 -160 0 -100 -4 -160 -10 -160 -5 0 -10 -18 -10 -40 0 -29 -4 -40 -15
-40 -12 0 -15 -15 -15 -79 0 -61 3 -80 15 -85 9 -3 15 -19 15 -41 0 -24 -4
-35 -15 -35 -12 0 -15 -20 -15 -120 0 -100 3 -120 15 -120 11 0 15 -11 15 -40
0 -36 3 -40 25 -40 23 0 25 -4 25 -40 l0 -40 -40 0 -40 0 0 -640 0 -640 40 0
40 0 0 -80 0 -80 40 0 40 0 0 -40 0 -40 40 0 40 0 0 -80 0 -80 40 0 40 0 0
-160 0 -160 80 0 80 0 0 -160 0 -160 40 0 40 0 0 -40 0 -40 40 0 40 0 0 -40 0
-40 80 0 80 0 0 -40 0 -40 -40 0 -40 0 0 -80 0 -80 40 0 40 0 0 -40 0 -40 120
0 120 0 0 -40 0 -40 -40 0 -40 0 0 -40 0 -40 80 0 80 0 0 -40 0 -40 40 0 40 0
0 -40 0 -40 40 0 40 0 0 -160 0 -160 40 0 40 0 0 -80 0 -80 40 0 40 0 0 -40 0
-40 -40 0 -40 0 0 -40 c0 -29 -4 -40 -15 -40 -11 0 -15 -11 -15 -40 0 -29 4
-40 15 -40 11 0 15 -11 15 -40 0 -36 3 -40 25 -40 23 0 25 -4 25 -40 0 -29 4
-40 15 -40 22 0 19 -8 -17 -43 -28 -26 -30 -32 -15 -35 14 -3 17 -15 17 -83 0
-64 3 -79 15 -79 12 0 15 -16 15 -80 0 -64 -3 -80 -15 -80 -12 0 -15 -14 -15
-69 0 -49 5 -74 15 -85 8 -8 15 -31 15 -50 0 -25 -4 -36 -15 -36 -11 0 -15
-11 -15 -40 0 -22 -4 -40 -10 -40 -5 0 -10 -18 -10 -40 0 -38 -2 -40 -30 -40
-25 0 -30 -4 -30 -25 0 -20 -5 -25 -25 -25 -24 0 -30 -9 -25 -39 1 -7 -8 -20
-19 -28 -12 -8 -21 -21 -21 -29 0 -8 -9 -14 -20 -14 -27 0 -25 -7 13 -43 l32
-31 -35 -8 c-23 -4 -10 -6 35 -3 39 2 64 2 58 -1 -21 -9 -15 -21 12 -28 14 -4
25 -11 25 -16 0 -14 -51 -20 -193 -24 -127 -3 -127 -3 -155 -33 -72 -80 -82
-92 -82 -105 0 -10 -2 -10 -9 1 -7 11 -13 8 -26 -13 -10 -14 -21 -26 -26 -26
-20 0 -79 -46 -74 -57 3 -8 -4 -12 -18 -11 -12 0 -53 -14 -92 -32 -99 -47
-127 -57 -240 -84 -119 -29 -260 -40 -370 -27 -82 9 -191 34 -222 50 -10 5
-56 24 -103 42 -47 18 -86 37 -88 41 -2 4 -18 15 -36 23 -17 8 -54 33 -80 56
-27 22 -56 37 -63 35 -8 -3 -12 -2 -9 2 3 5 -24 37 -59 72 l-63 63 -479 -3
c-263 -1 -498 -3 -523 -5 -25 -1 -205 -4 -400 -6 -331 -3 -395 -8 -452 -33
-10 -5 -18 -12 -18 -18 0 -5 -21 -29 -47 -54 -29 -26 -40 -42 -28 -38 13 4 9
-2 -10 -15 -16 -11 -35 -21 -41 -21 -6 0 -26 -13 -44 -30 -18 -16 -37 -30 -41
-30 -3 0 -42 -20 -86 -44 -43 -24 -93 -47 -111 -51 -38 -8 -39 -11 -9 -43 l22
-24 -25 4 c-17 2 -24 8 -22 20 4 24 -18 34 -25 10 -5 -20 -10 -21 -175 -38
-44 -5 -55 -10 -51 -21 6 -16 -4 -15 -249 13 -123 14 -266 48 -338 81 -88 40
-196 96 -205 106 -5 7 -28 25 -50 40 -22 15 -56 48 -75 72 -19 24 -47 49 -62
55 -15 7 -29 18 -32 27 -3 8 -10 12 -15 8 -11 -6 -36 34 -33 53 2 6 -4 12 -13
12 -8 0 -15 9 -15 20 0 11 -7 23 -15 26 -8 4 -15 12 -15 18 0 22 -22 37 -37
25 -10 -9 -13 -4 -13 25 0 45 -19 126 -30 126 -8 0 -20 43 -39 138 -6 30 -11
94 -11 143 0 50 -3 88 -8 86 -4 -3 -7 17 -7 43 0 26 3 46 7 43 5 -2 8 14 8 36
0 22 7 66 16 98 9 32 18 69 19 83 3 50 17 100 26 94 5 -3 6 2 3 10 -3 8 4 24
15 35 11 11 25 39 32 61 7 23 19 44 26 47 9 4 12 15 7 37 -4 24 -1 36 13 46
15 12 16 12 6 0 -7 -8 -13 -23 -13 -34 1 -20 2 -20 21 3 11 13 17 31 14 41 -3
11 4 30 19 47 13 16 26 40 29 53 4 24 4 24 6 -2 1 -29 16 -38 24 -15 2 6 2 27
-1 46 -4 24 -2 32 6 27 7 -4 12 -16 12 -28 0 -17 2 -18 15 -8 12 10 13 15 4
20 -17 11 -1 30 25 30 28 0 46 18 46 47 0 13 4 23 10 23 5 0 12 11 16 25 4 16
13 25 26 25 17 0 18 -3 8 -15 -15 -18 1 -21 31 -5 15 9 17 15 9 30 -23 43 -13
64 39 83 27 9 63 17 80 17 23 0 31 5 31 18 1 9 6 27 13 38 11 19 21 21 97 22
88 0 112 5 142 31 23 20 23 38 1 44 -10 3 1 3 25 0 l42 -6 0 47 0 46 65 1 c36
1 71 2 78 3 8 1 13 26 15 79 l3 77 119 0 120 0 0 80 0 80 -40 0 -40 0 0 40 0
40 80 0 80 0 0 80 0 80 40 0 40 0 0 40 0 40 80 0 80 0 0 80 0 80 40 0 40 0 0
40 0 40 80 0 80 0 0 80 0 80 40 0 40 0 0 120 0 120 40 0 40 0 0 80 0 80 40 0
40 0 0 160 0 160 -80 0 -80 0 0 40 0 40 40 0 40 0 0 40 0 40 40 0 40 0 0 159
0 160 -37 3 -38 3 -3 118 -3 117 -24 0 c-25 0 -25 2 -25 80 l0 80 -30 0 c-28
0 -30 2 -30 40 0 36 3 40 25 40 22 0 25 4 25 39 0 22 5 41 12 43 15 5 1 28
-18 28 -8 0 -14 -7 -14 -15 0 -9 -9 -15 -25 -15 -25 0 -26 2 -24 51 2 39 -1
53 -14 61 -13 7 -17 23 -17 68 0 58 -1 60 -25 60 -25 0 -26 2 -24 51 2 39 -1
53 -14 61 -20 11 -24 97 -5 116 9 9 8 12 -5 12 -10 0 -33 15 -51 34 l-34 33
-1 164 c-1 94 -6 165 -11 167 -6 2 -10 21 -10 43 0 21 -4 39 -8 39 -5 0 -14
18 -21 40 -6 22 -16 40 -21 40 -6 0 -10 18 -10 40 0 29 -4 40 -15 40 -9 0 -15
9 -15 25 0 20 -5 25 -25 25 -21 0 -25 5 -25 30 0 31 16 41 26 17 6 -16 64 -21
64 -6 0 6 -13 15 -29 20 -22 8 -28 15 -24 29 3 11 2 37 -2 57 -6 35 -8 37 -21
18 -17 -23 -19 -6 -4 45 6 22 6 38 0 44 -6 6 -9 30 -9 56 2 45 2 45 9 10 7
-32 7 -30 8 20 1 30 -5 73 -13 95 -8 22 -15 48 -15 58 0 9 -5 17 -12 17 -6 0
-4 7 5 18 10 10 17 22 17 26 0 13 25 33 37 29 20 -7 37 39 48 137 l12 95 8
-73 c4 -40 9 -71 10 -70 3 3 9 57 26 226 7 67 16 119 19 115 4 -5 3 -44 -1
-88 -4 -44 -7 -118 -7 -165 l0 -85 13 88 c15 101 28 128 24 47 -2 -30 -2 -81
-1 -114 2 -53 4 -58 22 -53 11 3 20 1 20 -4 0 -5 5 -9 12 -9 6 0 8 3 5 7 -4 3
-2 12 4 20 9 11 7 13 -12 11 -22 -3 -24 1 -25 42 l-2 45 8 -45 7 -45 1 43 c2
41 3 42 37 42 19 0 35 5 35 10 0 6 5 10 10 10 6 0 10 -10 10 -22 0 -22 3 -23
75 -20 49 2 75 8 75 15 0 8 15 11 45 9 25 -2 45 -8 45 -13 0 -5 18 -9 39 -9
22 0 42 -5 44 -12 4 -9 8 -9 14 -3 21 26 58 35 138 35 l85 0 0 -41 0 -40 37 3
c30 3 38 9 43 28 5 23 11 25 80 28 52 2 76 -1 82 -10 5 -8 11 -9 16 -3 18 25
57 35 137 35 84 0 85 0 85 -25 0 -22 4 -25 40 -25 29 0 40 -4 40 -15 0 -12 20
-15 120 -15 l120 0 0 -40 0 -40 80 0 80 0 0 -40 0 -40 40 0 40 0 0 -40 0 -40
120 0 c107 0 120 -2 120 -17 1 -17 1 -17 14 0 7 9 25 17 40 17 25 0 26 3 26
49 0 31 5 53 15 61 9 7 13 21 10 31 -5 15 -1 19 15 19 17 0 20 -4 15 -19 -7
-23 29 -49 41 -30 3 6 2 14 -3 18 -14 10 -10 104 5 107 7 1 8 0 2 -3 -20 -9
-10 -30 15 -30 32 0 54 24 31 33 -13 5 -16 18 -15 57 2 44 -1 53 -24 71 -22
18 -27 30 -27 69 0 35 4 47 15 47 11 0 15 11 15 40 0 22 5 40 10 40 6 0 10 14
10 30 l0 30 70 0 c40 0 70 4 70 10 0 6 -7 10 -15 10 -8 0 -15 5 -15 10 0 6
-19 11 -42 12 l-43 1 43 4 c37 4 42 7 42 29 l0 24 160 0 160 0 0 -40z m-2601
-115 l-6 -90 -1 77 c-2 62 5 119 12 106 1 -2 -1 -43 -5 -93z m-1489 -75 c0 -5
-7 -10 -15 -10 -8 0 -15 5 -15 10 0 6 7 10 15 10 8 0 15 -4 15 -10z m-95 -60
c-3 -5 -12 -10 -18 -10 -7 0 -6 4 3 10 19 12 23 12 15 0z m-35 -24 c0 -2 -7
-7 -16 -10 -8 -3 -12 -2 -9 4 6 10 25 14 25 6z m1680 -16 c0 -5 -4 -10 -10
-10 -5 0 -10 5 -10 10 0 6 5 10 10 10 6 0 10 -4 10 -10z m-200 -164 c0 -3 -4
-8 -10 -11 -5 -3 -10 -1 -10 4 0 6 5 11 10 11 6 0 10 -2 10 -4z m-2850 -1256
c0 -5 -5 -10 -11 -10 -5 0 -7 5 -4 10 3 6 8 10 11 10 2 0 4 -4 4 -10z m-87
-125 c-3 -9 -8 -14 -10 -11 -3 3 -2 9 2 15 9 16 15 13 8 -4z m-48 -104 c-3
-12 -11 -21 -16 -21 -5 0 -9 -8 -9 -19 0 -10 -7 -24 -15 -31 -22 -18 -18 -4
12 50 28 50 40 59 28 21z m-76 -147 c-18 -22 -22 -11 -7 22 10 21 14 24 16 10
2 -9 -2 -24 -9 -32z m-89 -187 c-27 -59 -50 -114 -50 -122 0 -8 -4 -15 -10
-15 -5 0 -10 -7 -10 -16 0 -9 -6 -30 -14 -47 -8 -18 -22 -53 -31 -79 -10 -27
-22 -48 -26 -48 -5 0 -9 -10 -9 -22 0 -13 -7 -36 -15 -52 -8 -16 -18 -46 -21
-68 -4 -21 -11 -41 -15 -44 -5 -3 -9 -18 -9 -34 0 -16 -4 -32 -10 -35 -5 -3
-10 -1 -10 5 0 20 45 165 52 168 5 2 8 9 8 17 0 21 39 137 65 193 14 29 25 57
25 63 0 12 84 195 100 219 6 8 14 24 17 35 6 15 8 16 10 5 2 -9 -19 -64 -47
-123z m3568 -650 c2 -64 0 -77 -13 -77 -12 0 -15 15 -15 81 0 60 3 80 13 77 8
-3 13 -31 15 -81z m-3801 31 c-3 -8 -6 -5 -6 6 -1 11 2 17 5 13 3 -3 4 -12 1
-19z m-8 -40 c0 -7 -4 -22 -8 -32 -10 -25 -22 -6 -14 22 6 23 23 31 22 10z
m-32 -125 c-5 -32 -15 -66 -22 -76 -11 -15 -12 -11 -8 30 3 26 9 52 14 58 5 5
9 17 9 27 0 10 4 18 8 18 5 0 5 -26 -1 -57z m-40 -175 c-5 -40 -13 -82 -19
-93 -5 -11 -13 -43 -17 -70 -5 -31 -10 -40 -11 -25 -2 24 -3 24 -11 -5 -8 -28
-8 -28 -3 5 21 145 27 180 34 180 5 0 11 18 15 40 12 69 21 43 12 -32z m-61
-310 c-3 -35 -8 -91 -10 -125 -3 -34 -12 -75 -21 -90 -15 -27 -16 -24 -11 60
3 49 12 102 21 119 8 17 15 46 15 65 0 18 3 33 6 33 4 0 4 -28 0 -62z m-19
-10 c-3 -8 -6 -5 -6 6 -1 11 2 17 5 13 3 -3 4 -12 1 -19z m-17 -305 c0 -196
11 -784 15 -813 3 -19 10 -66 16 -105 5 -38 14 -108 19 -155 9 -91 23 -170 40
-235 6 -22 17 -71 25 -110 18 -94 59 -250 79 -305 10 -25 21 -63 27 -85 13
-57 45 -167 54 -189 6 -13 4 -17 -4 -15 -13 5 -33 50 -52 119 -6 19 -18 53
-28 75 -22 47 -35 90 -51 165 -7 30 -16 65 -21 78 -5 13 -9 32 -9 43 0 10 -4
27 -9 37 -5 9 -14 44 -21 77 -7 33 -19 89 -27 125 -16 72 -22 107 -52 355 -12
94 -24 177 -27 185 -8 21 -6 772 2 793 13 34 24 16 24 -40z m3017 -1035 c-2
-13 -4 -5 -4 17 -1 22 1 32 4 23 2 -10 2 -28 0 -40z m6460 30 c-3 -8 -6 -5 -6
6 -1 11 2 17 5 13 3 -3 4 -12 1 -19z m-24 -103 c4 -27 3 -35 -3 -25 -5 8 -10
28 -10 44 0 39 6 30 13 -19z m-13 -91 c0 -8 -5 -12 -10 -9 -6 4 -8 11 -5 16 9
14 15 11 15 -7z m-70 -268 c0 -3 -4 -8 -10 -11 -5 -3 -10 -1 -10 4 0 6 5 11
10 11 6 0 10 -2 10 -4z m-7100 -196 c0 -5 -5 -10 -11 -10 -5 0 -7 5 -4 10 3 6
8 10 11 10 2 0 4 -4 4 -10z m-100 -44 c0 -3 -4 -8 -10 -11 -5 -3 -10 -1 -10 4
0 6 5 11 10 11 6 0 10 -2 10 -4z m7140 -14 c0 -13 -12 -22 -22 -16 -10 6 -1
24 13 24 5 0 9 -4 9 -8z m-8995 -377 c19 -38 35 -73 35 -78 0 -4 9 -27 20 -49
11 -23 20 -47 20 -54 0 -6 7 -17 15 -24 8 -7 15 -23 15 -36 0 -13 5 -24 10
-24 6 0 10 -9 10 -19 0 -11 4 -21 9 -23 14 -5 25 -58 13 -58 -6 0 -14 9 -17
20 -3 11 -11 20 -16 20 -5 0 -9 7 -9 16 0 9 -15 46 -34 84 -19 38 -42 88 -50
112 -8 24 -25 68 -36 98 -45 115 -39 120 15 15z m185 -388 c0 -1 4 -17 9 -35
12 -41 -3 -42 -24 -2 -19 36 -19 40 0 40 8 0 15 -1 15 -3z m58 -132 c9 -22 18
-42 21 -45 4 -3 21 -34 40 -70 55 -107 88 -162 102 -171 8 -5 10 -9 4 -9 -5 0
-3 -6 5 -13 8 -7 26 -32 39 -57 13 -25 29 -49 35 -55 7 -5 21 -25 31 -42 11
-18 23 -33 27 -33 4 0 8 -7 8 -15 0 -27 -16 -16 -45 35 -17 27 -33 50 -37 50
-5 0 -8 5 -8 11 0 6 -13 28 -30 49 -16 21 -30 41 -30 44 0 3 -13 25 -30 48
-16 22 -30 45 -30 51 0 5 -10 18 -22 28 -11 11 -17 19 -13 19 4 0 2 8 -7 18
-8 9 -31 52 -52 95 -21 42 -42 80 -47 83 -15 9 -10 26 7 22 9 -2 23 -21 32
-43z m7182 -415 c0 -17 -7 -20 -40 -20 -33 0 -40 3 -40 20 0 17 7 20 40 20 33
0 40 -3 40 -20z m160 -42 c0 -11 -39 -20 -60 -13 -33 10 -23 20 20 20 22 0 40
-3 40 -7z m43 -35 c-24 -3 -43 -8 -43 -12 0 -5 -12 -6 -26 -3 -14 2 -36 -1
-48 -7 -12 -7 -38 -11 -57 -8 -32 4 -32 4 7 5 26 1 44 7 47 16 4 11 25 14 84
13 43 0 59 -2 36 -4z m-7033 -75 c0 -6 -7 -5 -15 2 -8 7 -15 17 -15 22 0 6 7
5 15 -2 8 -7 15 -17 15 -22z m1162 0 c-28 -11 -120 -9 -128 3 -4 8 12 10 55 7
47 -2 62 0 66 12 5 13 7 13 15 0 7 -11 4 -17 -8 -22z m-189 5 c-13 -2 -33 -2
-45 0 -13 2 -3 4 22 4 25 0 35 -2 23 -4z m-948 -43 c3 -5 1 -10 -4 -10 -6 0
-11 5 -11 10 0 6 2 10 4 10 3 0 8 -4 11 -10z m47 -55 c6 -14 15 -25 20 -25 5
0 6 -5 3 -10 -7 -11 -22 2 -43 38 -7 14 -8 22 -2 22 6 0 16 -11 22 -25z m95
-120 c6 -14 7 -23 2 -19 -13 8 -31 44 -22 44 4 0 13 -11 20 -25z m6350 -71
c-3 -3 -12 -4 -19 -1 -8 3 -5 6 6 6 11 1 17 -2 13 -5z m-3848 -120 c13 -13
-11 -12 -45 1 l-39 15 40 -6 c22 -3 42 -8 44 -10z m1127 -274 c14 0 22 -4 19
-10 -10 -16 -51 -12 -66 7 -12 15 -12 16 4 10 10 -4 30 -7 43 -7z m170 -25
c16 -8 55 -15 88 -15 33 0 57 -3 54 -6 -3 -3 -40 -5 -81 -6 -74 0 -123 14
-112 33 8 13 18 11 51 -6z m204 -25 c12 -8 9 -10 -12 -10 -15 0 -30 5 -33 10
-8 13 25 13 45 0z m730 0 c8 -5 13 -10 10 -10 -52 -9 -190 -9 -190 -1 0 6 32
12 73 14 39 1 77 4 82 5 6 1 17 -3 25 -8z m-471 -26 c2 -2 -19 -4 -47 -4 -29
0 -52 4 -52 9 0 8 90 3 99 -5z"/>
<path d="M6240 8860 c0 -5 7 -10 16 -10 8 0 12 5 9 10 -3 6 -10 10 -16 10 -5
0 -9 -4 -9 -10z"/>
<path d="M4138 8843 c7 -3 16 -2 19 1 4 3 -2 6 -13 5 -11 0 -14 -3 -6 -6z"/>
<path d="M6175 8770 c-3 -5 -2 -10 4 -10 5 0 13 5 16 10 3 6 2 10 -4 10 -5 0
-13 -4 -16 -10z"/>
<path d="M5810 8490 c0 -29 4 -40 15 -40 11 0 15 11 15 40 0 29 -4 40 -15 40
-11 0 -15 -11 -15 -40z"/>
<path d="M3921 8164 c0 -11 3 -14 6 -6 3 7 2 16 -1 19 -3 4 -6 -2 -5 -13z"/>
<path d="M4001 7954 c0 -11 3 -14 6 -6 3 7 2 16 -1 19 -3 4 -6 -2 -5 -13z"/>
<path d="M4033 7610 c0 -25 2 -35 4 -22 2 12 2 32 0 45 -2 12 -4 2 -4 -23z"/>
<path d="M4373 6570 c0 -25 2 -35 4 -22 2 12 2 32 0 45 -2 12 -4 2 -4 -23z"/>
<path d="M4480 6300 c0 -5 5 -10 11 -10 5 0 7 5 4 10 -3 6 -8 10 -11 10 -2 0
-4 -4 -4 -10z"/>
<path d="M6850 5770 c0 -29 4 -40 15 -40 11 0 15 11 15 40 0 29 -4 40 -15 40
-11 0 -15 -11 -15 -40z"/>
<path d="M3288 4123 c7 -3 16 -2 19 1 4 3 -2 6 -13 5 -11 0 -14 -3 -6 -6z"/>
<path d="M3478 4123 c7 -3 16 -2 19 1 4 3 -2 6 -13 5 -11 0 -14 -3 -6 -6z"/>
<path d="M2800 3950 c0 -5 5 -10 10 -10 6 0 10 5 10 10 0 6 -4 10 -10 10 -5 0
-10 -4 -10 -10z"/>
<path d="M2738 3883 c7 -3 16 -2 19 1 4 3 -2 6 -13 5 -11 0 -14 -3 -6 -6z"/>
<path d="M2481 3614 c0 -11 3 -14 6 -6 3 7 2 16 -1 19 -3 4 -6 -2 -5 -13z"/>
<path d="M3174 3579 c-3 -6 -18 -9 -33 -7 -24 4 -27 1 -23 -24 4 -27 2 -28
-35 -28 -26 0 -46 -6 -56 -18 -18 -19 -23 -47 -8 -38 9 6 21 -16 21 -40 0 -11
-15 -14 -64 -14 -69 0 -96 -6 -96 -22 0 -5 -6 -16 -12 -23 -33 -37 -38 -46
-38 -70 0 -14 5 -25 10 -25 6 0 10 -5 10 -11 0 -8 -13 -10 -37 -6 -21 3 -32 3
-25 0 17 -7 15 -52 -3 -59 -21 -8 -19 -24 3 -24 15 -1 15 -2 1 -13 -26 -20
-39 -53 -39 -101 0 -42 2 -46 25 -46 16 0 25 -6 25 -15 0 -11 -11 -15 -40 -15
l-40 0 0 -65 c0 -57 2 -65 19 -65 15 0 19 -10 24 -67 3 -38 1 -69 -4 -71 -19
-7 -8 -32 16 -38 18 -4 25 -13 25 -30 0 -17 6 -24 19 -24 29 0 49 -25 44 -54
-3 -14 -10 -26 -16 -26 -5 0 2 -9 16 -20 14 -11 35 -20 46 -20 18 0 21 -6 21
-45 0 -29 5 -45 13 -46 6 -1 47 0 91 1 52 1 81 -2 86 -10 6 -9 15 -8 38 4 26
13 71 16 275 16 208 0 246 2 251 15 3 9 19 15 41 15 19 0 35 5 35 10 0 6 15
10 34 10 48 0 93 18 99 41 3 12 0 19 -9 19 -8 0 -17 7 -20 15 -9 24 -24 17
-24 -10 0 -22 -4 -25 -40 -25 -22 0 -40 5 -40 10 0 6 -33 10 -80 10 -47 0 -80
-4 -80 -10 0 -5 -19 -10 -42 -10 -23 0 -38 3 -34 8 4 4 22 7 39 7 30 0 32 3
37 40 l5 40 110 0 c61 0 116 4 123 9 7 4 28 5 47 2 24 -5 35 -13 38 -29 l4
-22 2 23 c1 28 27 29 50 1 l17 -22 14 33 c10 25 11 37 2 51 -9 15 -8 19 7 24
12 4 21 19 25 45 3 21 12 43 20 47 8 4 17 25 21 46 6 29 4 37 -8 37 -8 0 -18
7 -21 16 -10 27 -7 64 7 64 7 0 13 16 14 40 2 30 -1 40 -12 40 -11 0 -15 11
-15 38 0 20 -7 46 -15 56 -8 11 -15 14 -15 7 0 -7 -4 -9 -10 -6 -5 3 -10 19
-10 36 l0 29 -120 0 -120 0 0 40 0 40 -50 0 c-44 0 -67 12 -41 22 14 5 25 58
12 58 -6 0 -11 -10 -11 -22 l0 -21 -19 21 c-23 27 -31 28 -31 2 0 -11 -6 -20
-13 -20 -7 0 -19 -9 -27 -20 -15 -20 -40 -27 -40 -11 0 5 7 11 15 15 8 3 15
13 14 23 0 15 -2 15 -16 -4 -23 -33 -53 -30 -52 5 1 30 16 85 18 64 1 -10 6
-10 21 -2 27 15 25 33 -2 26 -13 -3 -17 -3 -10 0 27 13 9 24 -38 24 l-50 0 0
40 0 40 41 0 40 0 -3 38 -3 37 -153 -2 c-123 -1 -154 2 -159 13 -6 17 -19 18
-29 3z m273 -311 c-3 -7 -5 -2 -5 12 0 14 2 19 5 13 2 -7 2 -19 0 -25z m553
-218 c0 -38 -2 -40 -30 -40 -28 0 -30 2 -30 40 0 38 2 40 30 40 28 0 30 -2 30
-40z m37 -22 c-2 -13 -4 -3 -4 22 0 25 2 35 4 23 2 -13 2 -33 0 -45z m-47
-138 c0 -39 -1 -40 -35 -40 -34 0 -35 1 -35 40 0 39 1 40 35 40 34 0 35 -1 35
-40z m30 -5 c0 -19 -4 -35 -10 -35 -5 0 -10 16 -10 35 0 19 5 35 10 35 6 0 10
-16 10 -35z m-1140 -259 c0 -12 -6 -13 -30 -5 -16 6 -30 13 -30 15 0 2 14 4
30 4 20 0 30 -5 30 -14z m0 -86 c0 -5 -5 -10 -11 -10 -5 0 -7 5 -4 10 3 6 8
10 11 10 2 0 4 -4 4 -10z m160 -50 c0 -17 7 -20 40 -20 22 0 40 -4 40 -10 0
-6 -33 -10 -80 -10 l-80 0 0 30 c0 28 2 30 40 30 33 0 40 -3 40 -20z m400 5
c0 -11 -11 -15 -40 -15 -22 0 -40 4 -40 9 0 6 -19 12 -42 14 -24 2 -6 4 40 5
67 2 82 -1 82 -13z m160 -35 c0 -5 -18 -10 -40 -10 -22 0 -40 5 -40 10 0 6 18
10 40 10 22 0 40 -4 40 -10z"/>
<path d="M3760 3440 c0 -20 5 -30 15 -30 10 0 15 10 15 30 0 20 -5 30 -15 30
-10 0 -15 -10 -15 -30z"/>
<path d="M3570 3404 c0 -3 7 -12 15 -20 13 -13 15 -13 15 -1 0 8 -7 17 -15 21
-8 3 -15 3 -15 0z"/>
<path d="M4080 3155 c0 -8 5 -15 10 -15 6 0 10 7 10 15 0 8 -4 15 -10 15 -5 0
-10 -7 -10 -15z"/>
<path d="M2700 3060 c0 -5 5 -10 10 -10 6 0 10 5 10 10 0 6 -4 10 -10 10 -5 0
-10 -4 -10 -10z"/>
<path d="M4100 3060 c0 -5 5 -10 10 -10 6 0 10 5 10 10 0 6 -4 10 -10 10 -5 0
-10 -4 -10 -10z"/>
<path d="M4705 2860 c-3 -5 -1 -10 4 -10 6 0 11 5 11 10 0 6 -2 10 -4 10 -3 0
-8 -4 -11 -10z"/>
<path d="M5680 2780 c0 -5 5 -10 11 -10 5 0 7 5 4 10 -3 6 -8 10 -11 10 -2 0
-4 -4 -4 -10z"/>
<path d="M4110 2766 c0 -9 5 -16 10 -16 6 0 10 4 10 9 0 6 -4 13 -10 16 -5 3
-10 -1 -10 -9z"/>
<path d="M7631 2765 c1 -19 18 -51 18 -35 0 8 -4 22 -9 30 -5 8 -9 11 -9 5z"/>
<path d="M4091 2726 c-8 -10 -9 -16 -1 -21 5 -3 13 1 16 10 9 22 -1 29 -15 11z"/>
<path d="M4057 2653 c-4 -3 -7 -11 -7 -17 0 -6 5 -5 12 2 6 6 9 14 7 17 -3 3
-9 2 -12 -2z"/>
<path d="M4620 2630 c0 -5 5 -10 10 -10 6 0 10 5 10 10 0 6 -4 10 -10 10 -5 0
-10 -4 -10 -10z"/>
<path d="M2790 2594 c0 -9 5 -14 12 -12 18 6 21 28 4 28 -9 0 -16 -7 -16 -16z"/>
<path d="M4800 2601 c0 -6 50 -12 123 -14 l122 -3 -122 -2 c-74 -1 -123 -6
-123 -12 0 -6 -46 -10 -118 -10 -88 0 -123 -4 -138 -15 -17 -13 -17 -14 -1
-15 11 0 17 -8 17 -25 0 -22 4 -25 40 -25 29 0 40 -4 40 -15 0 -12 15 -15 83
-13 l82 2 -80 5 -80 6 104 7 c57 3 129 3 160 0 l56 -7 -45 -6 c-25 -3 47 -8
160 -10 113 -1 168 -5 123 -6 -107 -5 -109 -23 -3 -23 68 0 80 -3 80 -16 0
-15 9 -16 61 -10 34 3 106 6 160 6 99 0 99 0 99 25 0 23 -4 25 -42 26 l-43 2
50 7 c28 5 71 9 96 9 25 1 54 7 65 15 19 15 19 15 -1 30 -11 9 -44 16 -75 17
-51 2 -52 3 -12 6 34 3 42 8 42 24 0 18 -8 19 -120 19 -100 0 -120 3 -120 15
0 11 -11 15 -40 15 -29 0 -40 -4 -40 -15 0 -11 -11 -15 -41 -15 -32 0 -40 3
-36 14 5 13 -31 15 -239 16 -156 0 -244 -3 -244 -9z m438 -8 c-21 -2 -57 -2
-80 0 -24 2 -7 4 37 4 44 0 63 -2 43 -4z"/>
<path d="M7440 2599 c0 -5 5 -7 10 -4 6 3 10 8 10 11 0 2 -4 4 -10 4 -5 0 -10
-5 -10 -11z"/>
<path d="M7521 2594 c0 -11 3 -14 6 -6 3 7 2 16 -1 19 -3 4 -6 -2 -5 -13z"/>
<path d="M7556 2575 c-3 -8 -1 -15 4 -15 6 0 10 7 10 15 0 8 -2 15 -4 15 -2 0
-6 -7 -10 -15z"/>
<path d="M3898 2553 c12 -2 20 -9 17 -14 -4 -5 -1 -9 4 -9 6 0 11 7 11 15 0
10 -9 15 -27 14 -24 -2 -25 -2 -5 -6z"/>
<path d="M7400 2526 c0 -9 30 -14 35 -6 4 6 -3 10 -14 10 -12 0 -21 -2 -21 -4z"/>
<path d="M3966 2504 c-4 -9 -4 -19 -1 -22 2 -3 7 3 11 12 4 9 4 19 1 22 -2 3
-7 -3 -11 -12z"/>
<path d="M7040 2470 c0 -17 7 -20 40 -20 33 0 40 3 40 20 0 17 -7 20 -40 20
-33 0 -40 -3 -40 -20z"/>
<path d="M7360 2482 c0 -7 -16 -12 -40 -12 -26 0 -40 -5 -40 -13 0 -9 14 -12
48 -11 40 2 46 5 44 21 -5 21 -12 31 -12 15z"/>
<path d="M3857 2443 c-4 -3 -7 -11 -7 -17 0 -6 5 -5 12 2 6 6 9 14 7 17 -3 3
-9 2 -12 -2z"/>
<path d="M7896 2385 c-3 -8 -1 -15 4 -15 6 0 10 7 10 15 0 8 -2 15 -4 15 -2 0
-6 -7 -10 -15z"/>
<path d="M7178 2363 c7 -3 16 -2 19 1 4 3 -2 6 -13 5 -11 0 -14 -3 -6 -6z"/>
<path d="M5298 2343 c12 -2 32 -2 45 0 12 2 2 4 -23 4 -25 0 -35 -2 -22 -4z"/>
<path d="M6650 2290 c0 -5 17 -12 38 -15 20 -3 51 -8 67 -11 73 -14 241 -21
253 -11 7 6 40 10 72 9 33 -1 72 3 87 10 28 11 27 11 -22 19 -34 6 -57 5 -73
-3 -17 -9 -34 -9 -73 0 -61 14 -349 16 -349 2z"/>
<path d="M3344 2240 c-109 -8 -147 -19 -104 -31 36 -9 283 1 297 12 6 6 17 9
25 8 23 -3 38 1 38 9 0 11 -120 11 -256 2z"/>
<path d="M3170 2230 c19 -13 30 -13 30 0 0 6 -10 10 -22 10 -19 0 -20 -2 -8
-10z"/>
<path d="M4363 9823 c9 -2 23 -2 30 0 6 3 -1 5 -18 5 -16 0 -22 -2 -12 -5z"/>
<path d="M5783 9823 c9 -2 23 -2 30 0 6 3 -1 5 -18 5 -16 0 -22 -2 -12 -5z"/>
<path d="M5880 9811 c0 -10 80 -21 95 -12 6 3 -3 9 -20 12 -46 10 -75 10 -75
0z"/>
<path d="M6100 9770 c0 -5 15 -10 34 -10 19 0 43 -3 53 -6 10 -3 7 2 -7 10
-28 17 -80 21 -80 6z"/>
<path d="M6328 9723 c7 -3 16 -2 19 1 4 3 -2 6 -13 5 -11 0 -14 -3 -6 -6z"/>
<path d="M9980 9696 c0 -8 5 -18 10 -21 6 -3 10 3 10 14 0 12 -4 21 -10 21 -5
0 -10 -6 -10 -14z"/>
<path d="M10160 9690 c0 -13 7 -20 20 -20 13 0 20 7 20 20 0 13 -7 20 -20 20
-13 0 -20 -7 -20 -20z"/>
<path d="M3735 9693 c-11 -3 -24 -9 -30 -15 -10 -10 32 -2 70 13 l20 8 -20 -1
c-11 0 -29 -2 -40 -5z"/>
<path d="M6443 9683 c9 -2 23 -2 30 0 6 3 -1 5 -18 5 -16 0 -22 -2 -12 -5z"/>
<path d="M3625 9657 c-16 -5 -49 -18 -72 -28 -24 -11 -48 -19 -55 -19 -9 0 -9
-3 0 -12 10 -10 15 -10 20 -1 4 7 33 19 65 27 31 8 67 22 79 30 26 18 9 20
-37 3z"/>
<path d="M6538 9663 c7 -3 16 -2 19 1 4 3 -2 6 -13 5 -11 0 -14 -3 -6 -6z"/>
<path d="M9940 9660 c-12 -8 -10 -10 8 -10 13 0 20 4 17 10 -7 12 -6 12 -25 0z"/>
<path d="M6573 9643 c9 -2 25 -2 35 0 9 3 1 5 -18 5 -19 0 -27 -2 -17 -5z"/>
<path d="M9773 9643 c9 -2 23 -2 30 0 6 3 -1 5 -18 5 -16 0 -22 -2 -12 -5z"/>
<path d="M6647 9629 c7 -7 15 -10 18 -7 3 3 -2 9 -12 12 -14 6 -15 5 -6 -5z"/>
<path d="M6698 9603 c7 -3 16 -2 19 1 4 3 -2 6 -13 5 -11 0 -14 -3 -6 -6z"/>
<path d="M3391 9573 c-13 -3 -31 -11 -38 -19 -8 -8 -21 -14 -28 -14 -8 0 -17
-5 -20 -10 -4 -7 3 -8 22 -4 15 4 32 13 36 21 5 8 17 11 31 7 14 -3 27 1 35
10 15 17 11 18 -38 9z"/>
<path d="M3220 9493 c-8 -2 -24 -8 -35 -13 -11 -5 -41 -18 -67 -29 -53 -22
-64 -35 -20 -25 29 8 152 64 152 70 0 5 -10 4 -30 -3z"/>
<path d="M7104 9445 c21 -16 32 -13 21 4 -3 6 -14 11 -23 11 -15 -1 -15 -2 2
-15z"/>
<path d="M3016 9395 c-25 -19 -9 -19 24 0 14 8 19 14 10 14 -8 0 -24 -6 -34
-14z"/>
<path d="M7188 9403 c7 -3 16 -2 19 1 4 3 -2 6 -13 5 -11 0 -14 -3 -6 -6z"/>
<path d="M8545 9180 c-3 -5 -1 -10 4 -10 6 0 11 5 11 10 0 6 -2 10 -4 10 -3 0
-8 -4 -11 -10z"/>
<path d="M2 5245 c0 -16 2 -22 5 -12 2 9 2 23 0 30 -3 6 -5 -1 -5 -18z"/>
<path d="M10140 3850 c0 -13 -7 -20 -20 -20 -24 0 -26 -13 -5 -34 8 -8 15 -26
15 -40 0 -16 6 -26 15 -26 11 0 14 15 14 70 -1 39 -5 70 -10 70 -5 0 -9 -9 -9
-20z"/>
<path d="M235 3820 c-3 -5 1 -10 9 -10 9 0 16 5 16 10 0 6 -4 10 -9 10 -6 0
-13 -4 -16 -10z"/>
<path d="M9995 3570 c3 -5 8 -10 11 -10 2 0 4 5 4 10 0 6 -5 10 -11 10 -5 0
-7 -4 -4 -10z"/>
<path d="M392 3380 c0 -14 2 -19 5 -12 2 6 2 18 0 25 -3 6 -5 1 -5 -13z"/>
<path d="M9938 2343 c12 -2 32 -2 45 0 12 2 2 4 -23 4 -25 0 -35 -2 -22 -4z"/>
<path d="M1670 1724 c0 -10 171 -174 194 -186 11 -6 -24 35 -79 90 -92 93
-115 112 -115 96z"/>
<path d="M1895 1510 c3 -5 8 -10 11 -10 2 0 4 5 4 10 0 6 -5 10 -11 10 -5 0
-7 -4 -4 -10z"/>
<path d="M2070 1361 c0 -5 5 -13 10 -16 6 -3 10 -2 10 4 0 5 -4 13 -10 16 -5
3 -10 2 -10 -4z"/>
<path d="M2105 1330 c3 -5 14 -10 23 -10 15 0 15 2 2 10 -20 13 -33 13 -25 0z"/>
<path d="M3105 730 c3 -5 8 -10 11 -10 2 0 4 5 4 10 0 6 -5 10 -11 10 -5 0 -7
-4 -4 -10z"/>
</g>
</svg>
